<svg width="54" height="54" viewBox="0 0 54 54" fill="none" xmlns="http://www.w3.org/2000/svg">
<g clip-path="url(#clip0_1_565)">
<rect y="-0.00012207" width="54" height="54" rx="19" fill="#F03E3D"/>
<path d="M32.5714 20.4284H33.4286C33.5893 20.4284 33.7143 20.3034 33.7143 20.1427V19.5713C33.7143 19.4106 33.5893 19.2856 33.4286 19.2856H20.2857C20.125 19.2856 20 19.4106 20 19.5713V20.1427C20 20.3034 20.125 20.4284 20.2857 20.4284H21.1429C21.1429 23.732 22.7232 26.1249 24.4732 27.2856C22.7232 28.4463 21.1429 30.8392 21.1429 34.1427H20.2857C20.125 34.1427 20 34.2677 20 34.4284V34.9999C20 35.1606 20.125 35.2856 20.2857 35.2856H33.4286C33.5893 35.2856 33.7143 35.1606 33.7143 34.9999V34.4284C33.7143 34.2677 33.5893 34.1427 33.4286 34.1427H32.5714C32.5714 30.8392 30.9911 28.4463 29.2411 27.2856C30.9911 26.1249 32.5714 23.732 32.5714 20.4284ZM31.4286 20.4284C31.4286 21.732 31.1339 22.8838 30.6696 23.857H23.0446C22.5804 22.8838 22.2857 21.732 22.2857 20.4284H31.4286ZM30.9196 31.2856H22.7946C23.4554 29.5624 24.6429 28.3392 25.8304 27.857H27.8839C29.0714 28.3392 30.2589 29.5624 30.9196 31.2856Z" fill="white"/>
</g>
<defs>
<clipPath id="clip0_1_565">
<rect width="54" height="54" fill="white"/>
</clipPath>
</defs>
</svg>
