<svg width="54" height="62" viewBox="0 0 54 62" fill="none" xmlns="http://www.w3.org/2000/svg">
<rect y="-0.00012207" width="54" height="54" rx="19" fill="#02897A"/>
<path d="M32.1161 28.5981L22.9732 19.4552C22.8661 19.3392 22.7232 19.2856 22.5714 19.2856C22.5 19.2856 22.4196 19.3034 22.3571 19.3302C22.1429 19.4195 22 19.6249 22 19.857V33.2856C22 33.5177 22.1429 33.7231 22.3571 33.8124C22.4196 33.8392 22.5 33.857 22.5714 33.857C22.7232 33.857 22.8661 33.7945 22.9732 33.6874L25.7589 30.9017L27.4643 34.9374C27.5893 35.2231 27.9196 35.3659 28.2143 35.2409L29.7946 34.5713C30.0804 34.4463 30.2232 34.1159 30.0982 33.8213L28.3036 29.5713H31.7143C31.9464 29.5713 32.1518 29.4284 32.2411 29.2142C32.3304 29.0088 32.2857 28.7588 32.1161 28.5981Z" fill="white"/>
</svg>
