<svg width="54" height="62" viewBox="0 0 54 62" fill="none" xmlns="http://www.w3.org/2000/svg">
<rect y="-0.00012207" width="54" height="54" rx="19" fill="#4D8DFF"/>
<path d="M27.4821 25.6427L28.6518 26.1874L30.3929 25.6695V24.4552C30.3929 22.3927 28.6518 20.7409 26.5714 20.7409C24.5 20.7409 22.75 22.3838 22.75 24.4284V29.9642C22.75 30.4731 22.3393 30.8749 21.8393 30.8749C21.3393 30.8749 20.9286 30.4731 20.9286 29.9642V27.6249H18C18 29.9731 18 29.9999 18 29.9999C18 32.1159 19.7143 33.8302 21.8304 33.8302C23.9286 33.8302 25.6607 32.1427 25.6607 30.0534V24.5892C25.6607 24.0892 26.0714 23.6784 26.5714 23.6784C27.0714 23.6784 27.4821 24.0892 27.4821 24.5892V25.6427ZM32.2143 27.6249V30.0802C32.2143 30.5802 31.8036 30.982 31.3036 30.982C30.8036 30.982 30.3929 30.5802 30.3929 30.0802V27.6695L28.6518 28.1874L27.4821 27.6427V30.0356C27.4821 32.1338 29.2054 33.8302 31.3125 33.8302C33.4286 33.8302 35.1429 32.1159 35.1429 29.9999C35.1429 29.9999 35.1429 29.9731 35.1429 27.6249H32.2143Z" fill="white"/>
</svg>
