<svg width="54" height="62" viewBox="0 0 54 62" fill="none" xmlns="http://www.w3.org/2000/svg">
<rect y="-0.00012207" width="54" height="54" rx="19" fill="#740A76"/>
<path d="M27 34.1427C27.1429 34.1427 27.2857 34.0892 27.3929 33.982L32.9554 28.6249C33.0357 28.5445 35 26.7499 35 24.607C35 21.9909 33.4018 20.4284 30.7321 20.4284C29.1696 20.4284 27.7054 21.6606 27 22.357C26.2946 21.6606 24.8304 20.4284 23.2679 20.4284C20.5982 20.4284 19 21.9909 19 24.607C19 26.7499 20.9643 28.5445 21.0357 28.607L26.6071 33.982C26.7143 34.0892 26.8571 34.1427 27 34.1427Z" fill="white"/>
</svg>
